<?xml version="1.0" encoding="utf-8"?>
<!-- Generator: Adobe Illustrator 13.0.0, SVG Export Plug-In . SVG Version: 6.00 Build 14948)  -->
<!DOCTYPE svg PUBLIC "-//W3C//DTD SVG 1.1//EN" "http://www.w3.org/Graphics/SVG/1.1/DTD/svg11.dtd">
<svg version="1.1" id="Layer_1" xmlns="http://www.w3.org/2000/svg" xmlns:xlink="http://www.w3.org/1999/xlink" x="0px" y="0px"
	 width="1012.997px" height="1012.997px" viewBox="0 0 1012.997 1012.997" enable-background="new 0 0 1012.997 1012.997"
	 xml:space="preserve">
<circle fill="#FFFFFF" stroke="#FFFFFF" cx="506.499" cy="506.499" r="505.999"/>
<g>
	<path fill="#00695C" d="M366.424,828.425c-15.5,0-34.1,11.779-34.1-220.719c0-306.277,32.24-295.118,42.78-295.118h160.579
		c109.738,0,126.479,50.839,126.479,90.519c0,68.2-70.68,107.88-70.68,127.099c0,21.7,99.82,71.92,99.82,178.559
		c0,60.76-36.58,119.66-138.26,119.66H366.424z M517.702,491.768c17.98-13.02,44.02-43.4,44.02-68.82
		c0-29.76-26.039-37.199-49.6-37.199c-61.379,0-89.279,26.66-89.279,123.379c0,12.399-1.24,28.52,16.12,28.52
		c7.439,0,23.56-6.819,33.479-13.64L517.702,491.768z M453.223,609.566c-16.74,9.301-26.66,13.021-26.66,33.48
		c0,94.239,23.56,106.02,74.399,106.02c44.64,0,89.9-17.36,89.9-65.72c0-44.021-54.561-106.02-71.301-106.02
		c-8.059,0-19.219,6.82-26.039,10.54L453.223,609.566z"/>
</g>
<path fill="#00695C" d="M537.54,316.469h-100V204.512c0,0,51,20.206,100,0V316.469z"/>
<rect x="483.249" y="175.51" fill="#00695C" stroke="#00695C" width="6.792" height="40.625"/>
<path fill="#00695C" d="M480.349,85.635c0,0,2.782,37.813-6.315,53.823c-21.124,44.651,6.766,48.26,6.766,48.26l0.075-14.959
	l11.501,0.075v12.704c0,0,15.411-2.331,16.839-26.536C510.644,134.797,480.349,85.635,480.349,85.635z"/>
<path fill="#00695C" stroke="#00695C" d="M538.109,226.076c8.859,16.478,26.4,29.944,21.085,44.827s-26.223,1.772-26.223,1.772
	S529.251,209.598,538.109,226.076z"/>
<path fill="#00695C" stroke="#00695C" d="M337.61,435.17c-12.51,22.44-37.28,40.778-29.774,61.046
	c7.506,20.267,37.029,2.412,37.029,2.412S350.118,412.731,337.61,435.17z"/>
<path fill="#00695C" stroke="#00695C" d="M368.494,773.968c0,0-138.604,31.132-107.37,44.752s125.916,7.783,125.916,7.783
	L368.494,773.968z"/>
</svg>
